<svg width="316" height="675" viewBox="0 0 316 675" fill="none" xmlns="http://www.w3.org/2000/svg">
<path d="M360.588 674.679C161.765 674.679 0 523.397 0 337.458C0 151.518 161.765 0.236084 360.588 0.236084V4.44052C164.244 4.44052 4.53782 153.836 4.53782 337.418C4.53782 521.039 164.286 670.396 360.588 670.396C419.916 670.396 478.655 656.486 530.42 630.159L532.563 633.852C480.126 660.612 420.63 674.679 360.588 674.679Z" fill="#7D72FF" fill-opacity="0.6"/>
<path d="M189.961 597.033C92.8181 541.079 34.835 444.022 34.835 337.457H43.8685C43.8685 441.075 100.255 535.42 194.709 589.843L189.961 597.033Z" fill="#7D72FF" fill-opacity="0.6"/>
<path d="M360.589 642.141C324.875 642.141 289.791 636.757 256.262 626.187L259.161 618.21C291.766 628.506 325.883 633.732 360.631 633.732C523.783 633.732 659.287 519.425 675.716 367.829L684.707 368.693C667.732 524.533 528.405 642.141 360.589 642.141Z" fill="#7D72FF" fill-opacity="0.6"/>
<path d="M673.277 290.141C661.471 221.415 623.74 158.427 566.975 112.807C509.622 66.6755 436.303 41.2915 360.588 41.2915C299.454 41.2915 240.126 57.5986 188.992 88.4837C129.412 124.477 83.9496 178.703 60.9664 241.18L52.437 238.43C76.0505 174.184 122.815 118.426 184.076 81.4107C236.681 49.6611 297.689 32.8826 360.546 32.8826C438.445 32.8826 513.824 59.0131 572.815 106.441C631.177 153.358 670 218.154 682.143 288.844L673.277 290.141Z" fill="#7D72FF" fill-opacity="0.6"/>
<path d="M360.588 557.499C230.84 557.499 125.293 458.793 125.293 337.453C125.293 288.335 142.226 241.89 174.201 203.146L181.344 208.293C150.588 245.583 134.327 290.221 134.327 337.453C134.327 454.117 235.84 549.051 360.588 549.051C382.73 549.051 404.621 546.065 425.588 540.171L428.193 548.265C406.344 554.434 383.571 557.499 360.588 557.499Z" fill="#7D72FF" fill-opacity="0.6"/>
<path d="M501.342 171.793C460.964 141.733 412.266 125.858 360.585 125.858C315.249 125.858 271.51 138.353 234.073 162.008L229.031 155.014C267.938 130.416 313.443 117.449 360.585 117.449C414.367 117.449 464.997 133.952 506.972 165.231L501.342 171.793Z" fill="#7D72FF" fill-opacity="0.6"/>
<path d="M360.588 519.699C328.907 519.699 297.436 512.43 269.621 498.677L271.722 494.944C298.907 508.383 329.621 515.495 360.545 515.495C445.966 515.495 521.428 461.78 544.075 384.842L548.403 385.982C525.293 464.727 448.024 519.699 360.588 519.699Z" fill="#7D72FF" fill-opacity="0.6"/>
<path d="M222.817 466.386C186.01 431.964 165.716 386.187 165.716 337.501C165.716 237.027 253.111 155.256 360.59 155.256C468.027 155.256 555.464 237.027 555.464 337.501H550.968C550.968 239.345 465.59 159.499 360.632 159.499C255.674 159.499 170.296 239.345 170.296 337.501C170.296 385.047 190.086 429.764 226.094 463.4L222.817 466.386Z" fill="#7D72FF" fill-opacity="0.6"/>
<path d="M360.587 450.819C293.738 450.819 239.368 399.973 239.368 337.456C239.368 274.939 293.738 224.093 360.587 224.093V232.541C298.738 232.541 248.402 279.615 248.402 337.456C248.402 395.297 298.738 442.371 360.587 442.371C422.435 442.371 472.771 395.297 472.771 337.456H481.805C481.763 399.973 427.393 450.819 360.587 450.819Z" fill="#7D72FF" fill-opacity="0.6"/>
<path d="M360.589 393.802C327.354 393.802 300.337 368.536 300.337 337.454H304.833C304.833 366.178 329.833 389.558 360.547 389.558C391.261 389.558 416.261 366.178 416.261 337.454C416.261 308.73 391.261 285.35 360.547 285.35C343.488 285.35 327.606 292.502 316.933 304.997L313.404 302.365C324.917 288.848 342.102 281.107 360.547 281.107C393.782 281.107 420.799 306.373 420.799 337.454C420.799 368.536 393.782 393.802 360.589 393.802Z" fill="#7D72FF" fill-opacity="0.6"/>
</svg>
